<svg xmlns="http://www.w3.org/2000/svg" viewBox="0 0 128 128"><path d="M103.6 107.4c3.5-2.2 8.9-6.1 13.8-12.5s7.3-12.5 8.5-16.5c.5-1.7 2.2-7.5 2.2-14.7 0-10.1-3.3-25.1-15.4-36.8-14.5-14-32.1-14.3-35.7-14.3-8 0-15.7 1.9-22.6 5.2C44 23 35.7 31.4 30.8 41.7c-1.3 2.8-4 4.7-7.1 5-4 .3-7.5 4.4-8.9 9.6-.5 1.9-1.6 3.5-3.1 4.7C4.4 66.8 0 75.7 0 85c0 6.8 2.3 13.1 6.1 18.2 5.5 7.4 14.2 12.2 24 12.2h47.1c4.4 0 11-.5 18.3-3.5 3.2-1.4 5.9-3 8.1-4.5z" fill="#444"/><path d="M119.8 64.3c.1-17.1-10.4-28-12.5-30.1C95 22.1 79.9 21.8 76.9 21.8c-17.6 0-33.3 10.5-39.9 26.7-.6 1.3-1.8 2.3-3.4 2.3h-.4c-5.8 0-10.6 4.8-10.6 10.7v.5c0 1.4-.8 2.6-1.9 3.3C13.4 69 8.8 76.8 8.8 85c0 12.2 9.9 22.3 22.2 22.3h45.2c3.6-.1 17.6-.9 29.6-12 2.9-2.8 13.9-13.7 14-31z" fill="#db8412"/><path d="M110.8 57.4l.2 3.3c0 1.3-1.1 2.4-2.3 2.4-1.3 0-2.3-1.1-2.3-2.4l-.1-2.8v-.3c0-1.2.9-2.2 2.1-2.3h.3c.7 0 1.3.3 1.7.7-.2.1.3.5.4 1.4zm-3.3-10.3c0 1.2-1 2.3-2.2 2.3h-.1c-.8 0-1.6-.5-2-1.2-4.6-8.3-13.3-13.5-22.8-13.5-1.2 0-2.3-1-2.3-2.2v-.1c0-1.2 1-2.3 2.2-2.3h.1a30.37 30.37 0 0 1 15.8 4.4c4.6 2.8 8.4 6.8 11.1 11.5.1.3.2.7.2 1.1zM69.2 49l19.4 14.8c1.9 1.5 3.1 3.5 3.5 5.7v.2c.1.4.1.8.1 1.2 0 .6-.1 1.1-.2 1.6-.4 2.2-1.7 4.2-3.5 5.6L69.3 93c-2.6 2-5.4 2.5-7.7 1.4-.1-.1-.2-.1-.2-.2-2-1.2-3.2-3.5-3.2-6.4v-6.6h-5.7c-6.8 0-12-4.7-12-10.9 0-4.8 2.6-8.5 7.2-10.3 1.3-.5 2.7.2 3.2 1.5s-.1 2.8-1.4 3.3c-2.7 1.1-4 2.9-4 5.5 0 3.5 3 6 7 6h8.1c.5 0 1 .2 1.4.6.7.6 1.1 1.7 1.1 2.6v8.4c0 1.3.4 2 .7 2.1.4.2 1.3 0 2.4-.9l19.2-14.9c1.2-.9 1.8-2.1 1.8-3.3s-.6-2.3-1.7-3.1L66.2 53c-1.1-.9-2-1.1-2.4-.9-.3.2-.7.9-.7 2.1v7.6c0 .9-.5 1.7-1.2 2.1-.4.3-.8.4-1.3.4-1.4 0-2.5-1.1-2.5-2.5v-7.6c0-3.1 1.3-5.5 3.5-6.6l.7-.3c2.1-.7 4.6-.1 6.9 1.7z" fill="#444"/></svg>