<svg xmlns="http://www.w3.org/2000/svg" viewBox="0 0 128 128"><path d="M103.6 107.4c3.5-2.2 8.9-6.1 13.8-12.5s7.3-12.5 8.5-16.5c.5-1.7 2.2-7.5 2.2-14.7 0-10.1-3.3-25.1-15.4-36.8-14.5-14-32.1-14.3-35.7-14.3-8 0-15.7 1.9-22.6 5.2C44 23 35.7 31.4 30.8 41.7c-1.3 2.8-4 4.7-7.1 5-4 .3-7.5 4.4-8.9 9.6-.5 1.9-1.6 3.5-3.1 4.7C4.4 66.8 0 75.7 0 85c0 6.8 2.3 13.1 6.1 18.2 5.5 7.4 14.2 12.2 24 12.2h47.1c4.4 0 11-.5 18.3-3.5 3.2-1.4 5.9-3 8.1-4.5z" fill="#A099F0"/><path d="M119.8 64.3c.1-17.1-10.4-28-12.5-30.1C95 22.1 79.9 21.8 76.9 21.8c-17.6 0-33.3 10.5-39.9 26.7-.6 1.3-1.8 2.3-3.4 2.3h-.4c-5.8 0-10.6 4.8-10.6 10.7v.5c0 1.4-.8 2.6-1.9 3.3C13.4 69 8.8 76.8 8.8 85c0 12.2 9.9 22.3 22.2 22.3h45.2c3.6-.1 17.6-.9 29.6-12 2.9-2.8 13.9-13.7 14-31z" fill="#574AB8"/><path d="M110.8 57.4l.2 3.3c0 1.3-1.1 2.4-2.3 2.4-1.3 0-2.3-1.1-2.3-2.4l-.1-2.8v-.3c0-1.2.9-2.2 2.1-2.3h.3c.7 0 1.3.3 1.7.7-.2.1.3.5.4 1.4zm-3.3-10.3c0 1.2-1 2.3-2.2 2.3h-.1c-.8 0-1.6-.5-2-1.2-4.6-8.3-13.3-13.5-22.8-13.5-1.2 0-2.3-1-2.3-2.2v-.1c0-1.2 1-2.3 2.2-2.3h.1a30.37 30.37 0 0 1 15.8 4.4c4.6 2.8 8.4 6.8 11.1 11.5.1.3.2.7.2 1.1zM88.3 73.8L73.5 93.2c-1.5 1.9-3.5 3.1-5.7 3.5h-.2c-.4.1-.8.1-1.2.1-.6 0-1.1-.1-1.6-.2-2.2-.4-4.2-1.7-5.6-3.5L44.3 73.9c-2-2.6-2.5-5.4-1.4-7.7.1-.1.1-.2.2-.2 1.2-2 3.5-3.2 6.4-3.2h6.6v-5.7c0-6.8 4.7-12 10.9-12 4.8 0 8.5 2.6 10.3 7.2.5 1.3-.2 2.7-1.5 3.2s-2.8-.1-3.3-1.4c-1.1-2.7-2.9-4-5.5-4-3.5 0-6 3-6 7v8.1c0 .5-.2 1-.6 1.4-.6.7-1.7 1.1-2.6 1.1h-8.4c-1.3 0-2 .4-2.1.7-.2.4 0 1.3.9 2.4L63.1 90c.9 1.2 2.1 1.8 3.3 1.8s2.3-.6 3.1-1.7l14.8-19.3c.9-1.1 1.1-2 .9-2.4-.2-.3-.9-.7-2.1-.7h-7.6c-.9 0-1.7-.5-2.1-1.2-.3-.4-.4-.8-.4-1.3 0-1.4 1.1-2.5 2.5-2.5h7.6c3.1 0 5.5 1.3 6.6 3.5l.3.7c.7 2.1.1 4.6-1.7 6.9z" fill="#fff"/></svg>